# xmcd
#
# Track frame offsets:
#	150
#	9762
#	19730
#	36837
#	52527
#	60738
#	69968
#	80977
#	91628
#	105036
#
# Disc length: 1590 seconds
#
# Revision: 1
# Processed by: cddbd v1.5.1PL0 Copyright (c) Steve Scherf et al.
# Submitted via: audiograbber 1.83.01
#
DISCID=6106340a
DTITLE=Lazy "B" Wranglers, The - Colorado
DYEAR=1900
DGENRE=Western
TTITLE0=Ghost Riders in the Sky
TTITLE1=Blue Prairie
TTITLE2=Song of Wyoming
TTITLE3=(I Loved It) When the Cowboys All Would Sing
TTITLE4=Cimmeron
TTITLE5=A Cowboy Has to Sing
TTITLE6=The Cowboy's Prayer
TTITLE7=Deulin' Banjos
TTITLE8=Buckskin and Blanket Days
TTITLE9=Colorado
EXTD=Never released on CD, ripped from 33-1/3 LP
EXTT0=
EXTT1=
EXTT2=
EXTT3=
EXTT4=
EXTT5=
EXTT6=
EXTT7=
EXTT8=
EXTT9=
PLAYORDER=
